# Blender 3.6.5
# www.blender.org
mtllib New_Screen.mtl
o Cylinder
v 0.000000 -0.044351 -5.910911
v 0.000000 0.044351 -5.910911
v 1.153161 -0.044351 -5.797334
v 1.153161 0.044351 -5.797334
v 2.262008 -0.044351 -5.460969
v 2.262008 0.044351 -5.460969
v 3.283926 -0.044351 -4.914742
v 3.283926 0.044351 -4.914742
v 4.179645 -0.044351 -4.179645
v 4.179645 0.044351 -4.179645
v 4.914742 -0.044351 -3.283926
v 4.914742 0.044351 -3.283926
v 5.460969 -0.044351 -2.262008
v 5.460969 0.044351 -2.262008
v 5.797334 -0.044351 -1.153161
v 5.797334 0.044351 -1.153161
v 5.910911 -0.044351 0.000000
v 5.910911 0.044351 0.000000
v 5.797334 -0.044351 1.153161
v 5.797334 0.044351 1.153161
v 5.460969 -0.044351 2.262008
v 5.460969 0.044351 2.262008
v 4.914742 -0.044351 3.283926
v 4.914742 0.044351 3.283926
v 4.179645 -0.044351 4.179645
v 4.179645 0.044351 4.179645
v 3.283926 -0.044351 4.914742
v 3.283926 0.044351 4.914742
v 2.262008 -0.044351 5.460969
v 2.262008 0.044351 5.460969
v 1.153161 -0.044351 5.797334
v 1.153161 0.044351 5.797334
v 0.000000 -0.044351 5.910911
v 0.000000 0.044351 5.910911
v -1.153161 -0.044351 5.797334
v -1.153161 0.044351 5.797334
v -2.262008 -0.044351 5.460969
v -2.262008 0.044351 5.460969
v -3.283926 -0.044351 4.914742
v -3.283926 0.044351 4.914742
v -4.179645 -0.044351 4.179645
v -4.179645 0.044351 4.179645
v -4.914742 -0.044351 3.283926
v -4.914742 0.044351 3.283926
v -5.460969 -0.044351 2.262008
v -5.460969 0.044351 2.262008
v -5.797334 -0.044351 1.153161
v -5.797334 0.044351 1.153161
v -5.910911 -0.044351 0.000000
v -5.910911 0.044351 0.000000
v -5.797334 -0.044351 -1.153161
v -5.797334 0.044351 -1.153161
v -5.460969 -0.044351 -2.262008
v -5.460969 0.044351 -2.262008
v -4.914742 -0.044351 -3.283926
v -4.914742 0.044351 -3.283926
v -4.179645 -0.044351 -4.179645
v -4.179645 0.044351 -4.179645
v -3.283926 -0.044351 -4.914742
v -3.283926 0.044351 -4.914742
v -2.262008 -0.044351 -5.460969
v -2.262008 0.044351 -5.460969
v -1.153161 -0.044351 -5.797334
v -1.153161 0.044351 -5.797334
vn 0.0980 -0.0000 -0.9952
vn 0.2903 -0.0000 -0.9569
vn 0.4714 -0.0000 -0.8819
vn 0.6344 -0.0000 -0.7730
vn 0.7730 -0.0000 -0.6344
vn 0.8819 -0.0000 -0.4714
vn 0.9569 -0.0000 -0.2903
vn 0.9952 -0.0000 -0.0980
vn 0.9952 -0.0000 0.0980
vn 0.9569 -0.0000 0.2903
vn 0.8819 -0.0000 0.4714
vn 0.7730 -0.0000 0.6344
vn 0.6344 -0.0000 0.7730
vn 0.4714 -0.0000 0.8819
vn 0.2903 -0.0000 0.9569
vn 0.0980 -0.0000 0.9952
vn -0.0980 -0.0000 0.9952
vn -0.2903 -0.0000 0.9569
vn -0.4714 -0.0000 0.8819
vn -0.6344 -0.0000 0.7730
vn -0.7730 -0.0000 0.6344
vn -0.8819 -0.0000 0.4714
vn -0.9569 -0.0000 0.2903
vn -0.9952 -0.0000 0.0980
vn -0.9952 -0.0000 -0.0980
vn -0.9569 -0.0000 -0.2903
vn -0.8819 -0.0000 -0.4714
vn -0.7730 -0.0000 -0.6344
vn -0.6344 -0.0000 -0.7730
vn -0.4714 -0.0000 -0.8819
vn -0.0000 1.0000 -0.0000
vn -0.2903 -0.0000 -0.9569
vn -0.0980 -0.0000 -0.9952
vn -0.0000 -1.0000 -0.0000
vt 0.500000 0.999979
vt 0.597541 0.990372
vt 0.691334 0.961921
vt 0.777774 0.915718
vt 0.853539 0.853539
vt 0.915718 0.777774
vt 0.961921 0.691334
vt 0.990372 0.597541
vt 0.999979 0.500000
vt 0.990372 0.402459
vt 0.961921 0.308666
vt 0.915718 0.222226
vt 0.853539 0.146461
vt 0.777774 0.084282
vt 0.691334 0.038079
vt 0.597541 0.009628
vt 0.500000 0.000021
vt 0.402459 0.009628
vt 0.308666 0.038079
vt 0.222226 0.084282
vt 0.146461 0.146461
vt 0.084282 0.222226
vt 0.038079 0.308666
vt 0.009628 0.402459
vt 0.000021 0.500000
vt 0.009628 0.597541
vt 0.038079 0.691334
vt 0.084282 0.777774
vt 0.146461 0.853539
vt 0.222226 0.915718
vt 0.308666 0.961921
vt 0.402459 0.990372
s 0
f 1/1/1 2/1/1 4/2/1 3/2/1
f 3/2/2 4/2/2 6/3/2 5/3/2
f 5/3/3 6/3/3 8/4/3 7/4/3
f 7/4/4 8/4/4 10/5/4 9/5/4
f 9/5/5 10/5/5 12/6/5 11/6/5
f 11/6/6 12/6/6 14/7/6 13/7/6
f 13/7/7 14/7/7 16/8/7 15/8/7
f 15/8/8 16/8/8 18/9/8 17/9/8
f 17/9/9 18/9/9 20/10/9 19/10/9
f 19/10/10 20/10/10 22/11/10 21/11/10
f 21/11/11 22/11/11 24/12/11 23/12/11
f 23/12/12 24/12/12 26/13/12 25/13/12
f 25/13/13 26/13/13 28/14/13 27/14/13
f 27/14/14 28/14/14 30/15/14 29/15/14
f 29/15/15 30/15/15 32/16/15 31/16/15
f 31/16/16 32/16/16 34/17/16 33/17/16
f 33/17/17 34/17/17 36/18/17 35/18/17
f 35/18/18 36/18/18 38/19/18 37/19/18
f 37/19/19 38/19/19 40/20/19 39/20/19
f 39/20/20 40/20/20 42/21/20 41/21/20
f 41/21/21 42/21/21 44/22/21 43/22/21
f 43/22/22 44/22/22 46/23/22 45/23/22
f 45/23/23 46/23/23 48/24/23 47/24/23
f 47/24/24 48/24/24 50/25/24 49/25/24
f 49/25/25 50/25/25 52/26/25 51/26/25
f 51/26/26 52/26/26 54/27/26 53/27/26
f 53/27/27 54/27/27 56/28/27 55/28/27
f 55/28/28 56/28/28 58/29/28 57/29/28
f 57/29/29 58/29/29 60/30/29 59/30/29
f 59/30/30 60/30/30 62/31/30 61/31/30
f 4/2/31 2/1/31 64/32/31 62/31/31 60/30/31 58/29/31 56/28/31 54/27/31 52/26/31 50/25/31 48/24/31 46/23/31 44/22/31 42/21/31 40/20/31 38/19/31 36/18/31 34/17/31 32/16/31 30/15/31 28/14/31 26/13/31 24/12/31 22/11/31 20/10/31 18/9/31 16/8/31 14/7/31 12/6/31 10/5/31 8/4/31 6/3/31
f 61/31/32 62/31/32 64/32/32 63/32/32
f 63/32/33 64/32/33 2/1/33 1/1/33
f 1/1/34 3/2/34 5/3/34 7/4/34 9/5/34 11/6/34 13/7/34 15/8/34 17/9/34 19/10/34 21/11/34 23/12/34 25/13/34 27/14/34 29/15/34 31/16/34 33/17/34 35/18/34 37/19/34 39/20/34 41/21/34 43/22/34 45/23/34 47/24/34 49/25/34 51/26/34 53/27/34 55/28/34 57/29/34 59/30/34 61/31/34 63/32/34
